<svg id="Calque_3" data-name="Calque 3" xmlns="http://www.w3.org/2000/svg" viewBox="0 0 568.29 536.07"><defs><style>.cls-1,.cls-2,.cls-3{fill:none;stroke:#fdffeb;stroke-miterlimit:10;}.cls-1{stroke-width:5px;}.cls-2{stroke-width:3.9px;}.cls-3{stroke-width:4.29px;}</style></defs><path class="cls-1" d="M15.36,359.28S38,328,48.84,324.72c0,0,302.4,143.64,407.16-140.4,6.48-13,30.24-61.56,15.12-83.16l1.44-34.56s36-34.92,52.8-22c0,12.48-5.76,50.88-5.76,50.88S497,124.32,521,176.64s86.16,174-138.48,299.28C365.28,488.88,84.48,587.16,15.36,359.28Z"/><path class="cls-2" d="M116.45,284q-2.85-10.29-4.84-21.76s19.58-23.43,27.93-25.2c0,0,213.92,139.21,316.08-81.22,4.13-6.9,15.95-27,19.58-44.88h0"/><path class="cls-3" d="M58.31,328.83A211.28,211.28,0,0,1,49.73,288s24-22.91,33.58-24c0,0,222.13,160.14,355.68-40.53l0,0"/></svg>