<svg id="Calque_2" data-name="Calque 2" xmlns="http://www.w3.org/2000/svg" viewBox="0 0 485.49 663.51"><defs><style>.cls-1,.cls-2,.cls-3{fill:none;stroke:#fdffeb;stroke-miterlimit:10;}.cls-1{stroke-width:5.14px;}.cls-2,.cls-3{stroke-width:5px;}.cls-3{stroke-linecap:round;}</style></defs><path class="cls-1" d="M323.52,240.48a546.75,546.75,0,0,0-163.61-26.19"/><path class="cls-2" d="M324,259.32c159.74,0,135.62,25.56,135.62,168.72s-25.2,145.2-140.23,145.2"/><path class="cls-2" d="M324.54,294c122.82,0,94.74,31.42,94.74,125.74,0,103,2,122.58-97.31,116.47"/><line class="cls-3" x1="133.29" y1="275.07" x2="125.38" y2="618.49"/><line class="cls-3" x1="86.29" y1="251.82" x2="78.22" y2="602.45"/><line class="cls-3" x1="191.9" y1="231.78" x2="182.77" y2="628.35"/><line class="cls-3" x1="242.02" y1="244.68" x2="233.42" y2="618.01"/><line class="cls-3" x1="286.4" y1="256.42" x2="278.33" y2="607.06"/><path class="cls-2" d="M322.44,191.52s12.24,410-15.12,437.4S74.22,649.62,47,622.44C25.3,600.7,39,332.47,45.4,226c1.59-26.62,2.72-43.13,2.72-43.13"/><path class="cls-2" d="M287.65,182c20.32,4.43,32.32,8.59,34.44,9.36"/><path class="cls-2" d="M183.23,170.5c44.49.74,80,6.26,104,11.46"/><path class="cls-2" d="M101.73,216.9C66.83,220.37,46,226,46,226Z"/><path class="cls-2" d="M322.44,191.52c72.36-69.12,10.44-151.2-34.2-115.2-25.92-40.32-56.16-59-110.88-60.48s-92.16,30.24-100.8,72c-76.32,5.76-28.44,95-28.44,95l30.32-4c.65,7.93,5.13,17.6,23.28,17.14,0,.18,0,.37,0,.56-.1,5.94-.12,12.85,0,20.34.12,6.11.35,12.6.75,19.26,1.92,32.16,53.28,31.2,56.16,5.76s0-70.56,0-70.56,9.11-.84,24.5-.86h.09a479.28,479.28,0,0,1,104,11.46l.4.08c11.22,2.55,22.77,5.64,34.44,9.36l.18.06Z"/></svg>