<svg xmlns="http://www.w3.org/2000/svg" viewBox="0 0 611.28 520.56"><defs><style>.cls-1,.cls-2,.cls-3,.cls-4,.cls-5{fill:none;stroke:#fcfbec;}.cls-1{stroke-miterlimit:10;stroke-width:5px;}.cls-2,.cls-3,.cls-4,.cls-5{stroke-linecap:round;stroke-linejoin:round;}.cls-2{stroke-width:4.53px;}.cls-3{stroke-width:1.21px;}.cls-5{stroke-width:0.75px;}</style></defs><g id="Calque_3" data-name="Calque 3"><circle class="cls-1" cx="305.64" cy="253.8" r="195.48"/><path class="cls-2" d="M186.53,385.87a176.44,176.44,0,0,0,95.35,43.61"/><path class="cls-2" d="M127.71,243.93A177.27,177.27,0,0,1,357.48,84.72"/><path class="cls-2" d="M481.67,251.64c0,.72,0,1.44,0,2.16a177.19,177.19,0,0,1-140.4,173.31"/><path class="cls-3" d="M461.7,244.39s11.08-2.18,11.08,16.9h.16c0-19.08,11.08-16.9,11.08-16.9v-.21s-11.08,2.18-11.08-16.9h-.16c0,19.08-11.08,16.9-11.08,16.9"/><path class="cls-4" d="M169.92,372.44s10.13-2,10.13,15.33h.14c0-17.31,10.13-15.33,10.13-15.33v-.19s-10.13,2-10.13-15.33h-.14c0,17.3-10.13,15.33-10.13,15.33"/><path class="cls-5" d="M166.56,353.27s5.24-1,5.24,7.94h.08c0-9,5.24-7.94,5.24-7.94v-.1s-5.24,1-5.24-7.93h-.08c0,9-5.24,7.93-5.24,7.93"/></g></svg>