<svg xmlns="http://www.w3.org/2000/svg" viewBox="0 0 541.65 438.87"><defs><style>.cls-1,.cls-2,.cls-3,.cls-4,.cls-5{fill:none;stroke:#fdffeb;}.cls-1,.cls-2,.cls-5{stroke-miterlimit:10;}.cls-1{stroke-width:5px;}.cls-2,.cls-4{stroke-width:3px;}.cls-3,.cls-4{stroke-linejoin:round;}.cls-3{stroke-width:1.83px;}.cls-5{stroke-width:4px;}</style></defs><g id="Calque_3" data-name="Calque 3"><path class="cls-1" d="M128.32,191a201.61,201.61,0,0,0,36.56-.89c0,29.76,2.16,45.36,2.16,45.36C164.16,319.68,200.16,396,206.64,396c49,23.76,69.12,15.12,106.56-5.76C386.64,344.16,376.56,198,376.56,198s-5-1,11.28-3.36l12.43-.7"/><path class="cls-1" d="M85.9,183.52c-29.35-9.16-58.22-28.38-69.34-67.6,38.88-36,120.48-8.4,126.36-8.28s28,3.48,51-56.52c25.44-18.72,74.88-32.4,124.32-12.48,52.8,24,54.24,31.2,54.24,31.2s-3.36,22.08-1,26.88,17.16,19.2,26.88,19.2S466.8,72,530.88,128.4c-9.36,25-30.37,56.46-86.41,62.27"/><path class="cls-2" d="M113.28,147.84S109,131.28,100.08,132,87.6,146.4,87.6,146.4l-5.52,2.4,5.28,48s29.76,7.2,40.32,3.36c0,0,3.6-35.52-3.84-43.2S113.28,147.84,113.28,147.84Z"/><path class="cls-2" d="M370.08,74.16c8.17-14.34-15.48,20.4-18.72,49.68l7.2,3.6s.72,13-25.2,28.08c-13,28.8-56.88,92.16-56.88,152.64,0,0,37.44,22.32,38.16,79.92"/><path class="cls-2" d="M179.52,81.84s15.36,29.28-4.32,48.48C193,133.2,203,133.68,207.84,185s14.4,58.56,5.28,110.4c0,0-24.48,25.44-27.36,54.72"/><path class="cls-2" d="M270,406.8s16.14-32,18.72-37.08,11.88-13.32-5.4-39.24S219.24,311,203.76,329.4s5.52,47.4,2.16,64.92"/><path class="cls-3" d="M208.79,338.18s17.46,18.77,13.5,24S207.81,356.62,208.79,338.18Z"/><path class="cls-3" d="M275.93,339.06s-17.45,18.77-13.5,24S276.92,357.5,275.93,339.06Z"/><path class="cls-4" d="M361,193.68s-13.2-11.52-18.24,5.28C349.44,206.4,362.88,200.16,361,193.68Z"/><path class="cls-4" d="M174.78,193.86s13.5-7.74,15.48,2.16S174.78,199.8,174.78,193.86Z"/><line class="cls-5" x1="368.34" y1="77.13" x2="373.32" y2="69.12"/></g><g id="Calque_4" data-name="Calque 4"><path class="cls-4" d="M454.08,165.36a16,16,0,0,1-4.32-16.08c2.88-9.84-4.56-14.64-11.28-4.32S430.32,158.88,418.8,161c0,0-21.6,39.6-23,39.6s32.4,3.36,43,.24C445.2,193,454.08,165.36,454.08,165.36Z"/></g></svg>