<svg id="Calque_2" data-name="Calque 2" xmlns="http://www.w3.org/2000/svg" viewBox="0 0 798.69 395.67"><defs><style>.cls-1,.cls-2,.cls-3{fill:none;stroke:#fdffeb;stroke-miterlimit:10;}.cls-1{stroke-width:5px;}.cls-2{stroke-width:3px;}.cls-3{stroke-width:2px;}</style></defs><path class="cls-1" d="M76.56,319.68l-7.92-12.24,19.44-13L91,280.8,83,252.72l80.64-64.08L193.92,144l18.72-60.48,15.12-21.6s45.36-6.48,61.92-3.6c19.8-2.88,143-13.2,236.64,42.48,0,0,87.84,13.92,140.64,63.36l-1.44,5,12.24,18,7.56,44.64,1.08,38.52,6.84,10.08-9,43.56L559,325.44l-30.24,2.88-67-3.6-58.32,1.44L386.88,319l-118.8,7.2-119.76-2.4-30.27-3.36Z"/><polyline class="cls-2" points="227.76 61.92 281.76 89.64 369.6 114.84 402.36 131.4 461.04 158.4 510 165.12 549.96 168.84 576.72 157.44 622.8 166.56 665.52 169.2"/><polyline class="cls-3" points="576.24 175.68 576.24 195.84 556.08 235.68 559.44 264.48"/><line class="cls-3" x1="556.08" y1="281.52" x2="545.04" y2="326.88"/><polyline class="cls-3" points="356.28 320.76 354.12 291.6 356.82 268.19"/><polyline class="cls-3" points="362.57 218.35 366 188.64 375.6 162.72 391.44 126.72"/><polyline class="cls-3" points="250.8 162 250.8 219.6 230.64 262.08"/></svg>