<svg id="Calque_3" data-name="Calque 3" xmlns="http://www.w3.org/2000/svg" viewBox="0 0 349.41 870.87"><defs><style>.cls-1,.cls-2,.cls-3{fill:none;stroke-linecap:round;stroke-linejoin:round;}.cls-1,.cls-3{stroke:#fdffeb;}.cls-1{stroke-width:5px;}.cls-2{stroke:#fff;stroke-width:1.88px;}.cls-3{stroke-width:3px;}</style></defs><path class="cls-1" d="M35.88,36,294,33.12s34.56,324,28.8,396-.36,407.52-.36,407.52-79.56,10.08-118.44,1.8c0,0-4.68-384.12-16.56-413.28-5.4-37.8-15.12-126.36-15.12-126.36L161.52,450l-1.08,394.2s-108,5.4-126.36-4.32C30.84,814,23.28,361.44,24.72,347S28.32,70.56,35.88,36Z"/><path class="cls-2" d="M38.4,406.5s75.05-1.87,108.9,5.61"/><path class="cls-2" d="M206.17,414s47.09-15,100.07-7.48"/><line class="cls-3" x1="170.16" y1="36.27" x2="169.44" y2="131.04"/><ellipse class="cls-1" cx="180.93" cy="52.95" rx="2.25" ry="4.65"/></svg>