<svg id="Calque_3" data-name="Calque 3" xmlns="http://www.w3.org/2000/svg" viewBox="0 0 701.49 391.35"><defs><style>.cls-1,.cls-2,.cls-3{fill:none;stroke:#fdffeb;stroke-linecap:round;stroke-linejoin:round;}.cls-1{stroke-width:5px;}.cls-2{stroke-width:2px;}.cls-3{stroke-width:4.33px;}</style></defs><path class="cls-1" d="M20,220,19,329s118.8,55.08,189,49.68c0,0,135-43.2,236.52-25.92s153.36,21.6,159.84,18.36S668,340.92,668,340.92l17.28-71.28-24.84-58.32-14-40-25.92-19.44L613,132.48S399.12,18,233.88,24.48C157.2,80.64,108.6,128.16,108.6,128.16s9,7.68,7.56,22.68,2.16,9.72-35.64-2.16c-16.2,6.48-63.72,43.2-63.72,43.2Z"/><polyline class="cls-1" points="20.04 229.68 98.88 230.76 109.68 253.44 251.16 235.08 402.36 235.08 432.6 246.96 465 236.16 581.64 284.76 614.04 324.72 604.32 371.16"/><polyline class="cls-1" points="581.64 284.76 650.76 269.64 669.12 232.92"/><polyline class="cls-2" points="431.52 260.64 434.4 308.16 428.64 338.4"/><polyline class="cls-2" points="106.08 266.4 97.44 298.8 98.16 344.16"/><polyline class="cls-2" points="90.96 244.08 80.16 301.68 80.16 339.12"/><line class="cls-3" x1="107.88" y1="128.34" x2="107.88" y2="157.2"/></svg>